<?xml version="1.0" standalone="no"?><!DOCTYPE svg PUBLIC "-//W3C//DTD SVG 1.1//EN" "http://www.w3.org/Graphics/SVG/1.1/DTD/svg11.dtd"><svg t="1700791199089" class="icon" viewBox="0 0 1024 1024" version="1.1" xmlns="http://www.w3.org/2000/svg" p-id="2541" xmlns:xlink="http://www.w3.org/1999/xlink" width="64" height="64"><path d="M308.949333 185.557333A42.666667 42.666667 0 0 1 341.333333 170.666667h597.333334a42.666667 42.666667 0 0 1 42.666666 42.666666v597.333334a42.666667 42.666667 0 0 1-42.666666 42.666666H341.333333a42.666667 42.666667 0 0 1-32.384-14.890666l-256-298.666667a42.666667 42.666667 0 0 1 0-55.552l256-298.666667zM360.96 256L141.525333 512 360.96 768H896V256H360.96z" fill="#ffffff" p-id="2542" data-spm-anchor-id="a313x.search_index.0.i0.29af3a81lKb2Yj" class=""></path><path d="M512 366.336L742.997333 597.333333 682.666667 657.706667 451.669333 426.666667 512 366.336z" fill="#ffffff" p-id="2543" data-spm-anchor-id="a313x.search_index.0.i1.29af3a81lKb2Yj" class=""></path><path d="M451.669333 597.333333L682.666667 366.336 742.997333 426.666667 512 657.664 451.669333 597.333333z" fill="#ffffff" p-id="2544" data-spm-anchor-id="a313x.search_index.0.i2.29af3a81lKb2Yj" class=""></path></svg>